<mxfile host="app.diagrams.net" modified="2024-06-22T10:34:18.122Z" agent="Mozilla/5.0 (Windows NT 10.0; Win64; x64) AppleWebKit/537.36 (KHTML, like Gecko) Chrome/124.0.0.0 Safari/537.36 OPR/110.0.0.0" version="24.4.8" etag="s6i8gQzvIox1MLlXR_lY" type="github">
  <diagram name="Page-1" id="mhcrVIAo1mTGm-n2Vgq_">
    <mxGraphModel>
      <root>
        <mxCell id="0" />
        <mxCell id="1" parent="0" />
      </root>
    </mxGraphModel>
  </diagram>
</mxfile>
